<svg xmlns="http://www.w3.org/2000/svg" width="23" height="18" viewBox="0 0 23 18" xmlns:xlink="http://www.w3.org/1999/xlink">
  <defs>
    <path id="a" d="M14,8 C16.21,8 18,6.21 18,4 C18,1.79 16.21,0 14,0 C11.79,0 10,1.79 10,4 C10,6.21 11.79,8 14,8 L14,8 Z M14,10 C11.33,10 6,11.34 6,14 L6,16 L22,16 L22,14 C22,11.34 16.67,10 14,10 L14,10 Z"/>
  </defs>
  <g fill="none" fill-rule="evenodd" transform="translate(0 1)">
    <use stroke="#979797" xlink:href="#a"/>
    <use stroke="#006ACF" stroke-width="2" xlink:href="#a"/>
    <polygon fill="#006ACF" points="5 6 5 3 3 3 3 6 0 6 0 8 3 8 3 11 5 11 5 8 8 8 8 6"/>
  </g>
</svg>
