<svg xmlns="http://www.w3.org/2000/svg" width="15" height="19" viewBox="0 0 15 19">
  <path fill="#006ACF" fill-rule="evenodd" d="M13.3333333,1.66666667 L9.85,1.66666667 C9.5,0.7 8.58333333,0 7.5,0 C6.41666667,0 5.5,0.7 5.15,1.66666667 L1.66666667,1.66666667 C0.75,1.66666667 0,2.41666667 0,3.33333333 L0,16.6666667 C0,17.5833333 0.75,18.3333333 1.66666667,18.3333333 L13.3333333,18.3333333 C14.25,18.3333333 15,17.5833333 15,16.6666667 L15,3.33333333 C15,2.41666667 14.25,1.66666667 13.3333333,1.66666667 L13.3333333,1.66666667 Z M7.5,1.66666667 C7.95833333,1.66666667 8.33333333,2.04166667 8.33333333,2.5 C8.33333333,2.95833333 7.95833333,3.33333333 7.5,3.33333333 C7.04166667,3.33333333 6.66666667,2.95833333 6.66666667,2.5 C6.66666667,2.04166667 7.04166667,1.66666667 7.5,1.66666667 L7.5,1.66666667 Z M13.3333333,16.6666667 L1.66666667,16.6666667 L1.66666667,3.33333333 L3.33333333,3.33333333 L3.33333333,5.83333333 L11.6666667,5.83333333 L11.6666667,3.33333333 L13.3333333,3.33333333 L13.3333333,16.6666667 L13.3333333,16.6666667 Z"/>
</svg>
