<svg xmlns="http://www.w3.org/2000/svg" width="40" height="49" viewBox="0 0 40 49">
  <path fill="#006ACF" fill-rule="evenodd" d="M35.0877193,4.38636364 L25.9210526,4.38636364 C25,1.84227273 22.5877193,0 19.7368421,0 C16.8859649,0 14.4736842,1.84227273 13.5526316,4.38636364 L4.38596491,4.38636364 C1.97368421,4.38636364 0,6.36022727 0,8.77272727 L0,43.8636364 C0,46.2761364 1.97368421,48.25 4.38596491,48.25 L35.0877193,48.25 C37.5,48.25 39.4736842,46.2761364 39.4736842,43.8636364 L39.4736842,8.77272727 C39.4736842,6.36022727 37.5,4.38636364 35.0877193,4.38636364 L35.0877193,4.38636364 Z M19.7368421,4.38596491 C20.9429825,4.38596491 21.9298246,5.37280702 21.9298246,6.57894737 C21.9298246,7.78508772 20.9429825,8.77192982 19.7368421,8.77192982 C18.5307018,8.77192982 17.5438596,7.78508772 17.5438596,6.57894737 C17.5438596,5.37280702 18.5307018,4.38596491 19.7368421,4.38596491 L19.7368421,4.38596491 Z M37.3859649,45.7719298 L2.38596491,45.7719298 L2.38596491,6.77192982 L7.38596491,6.77192982 L7.38596491,14.0844298 L32.3859649,14.0844298 L32.3859649,6.77192982 L37.3859649,6.77192982 L37.3859649,45.7719298 L37.3859649,45.7719298 Z"/>
</svg>
