<svg xmlns="http://www.w3.org/2000/svg" width="19" height="17" viewBox="0 0 19 17" xmlns:xlink="http://www.w3.org/1999/xlink">
  <defs>
    <path id="a" d="M17.9444444,16.8888889 L1.05555556,16.8888889 C0.475,16.8888889 0,16.4138889 0,15.8333333 L0,6.86111111 C0,6.54444444 0.158333333,6.175 0.422222222,6.01666667 L8.65555556,0.211111111 C8.81388889,0.105555556 9.025,0 9.28888889,0 L9.65833333,0 C9.86944444,0 10.0805556,0.0527777778 10.2916667,0.211111111 L18.525,6.01666667 C18.7888889,6.22777778 18.9472222,6.54444444 18.9472222,6.86111111 L18.9472222,15.8333333 C19,16.4138889 18.525,16.8888889 17.9444444,16.8888889 L17.9444444,16.8888889 L17.9444444,16.8888889 Z M16.8888889,7.70555556 C16.8888889,7.54722222 16.7833333,7.38888889 16.6777778,7.28333333 L9.5,2.21666667 L2.32222222,7.28333333 C2.16388889,7.38888889 2.11111111,7.54722222 2.11111111,7.70555556 L2.11111111,14.25 C2.11111111,14.5666667 2.32222222,14.7777778 2.63888889,14.7777778 L16.3611111,14.7777778 C16.6777778,14.7777778 16.8888889,14.5666667 16.8888889,14.25 L16.8888889,7.70555556 L16.8888889,7.70555556 Z M4.22222222,16.8888889 L4.22222222,8.97222222 C4.22222222,8.65555556 4.43333333,8.44444444 4.75,8.44444444 L7.91666667,8.44444444 C8.23333333,8.44444444 8.44444444,8.65555556 8.44444444,8.97222222 L8.44444444,16.8888889 L4.22222222,16.8888889 L4.22222222,16.8888889 Z M14.25,10.5555556 L11.0833333,10.5555556 C10.7666667,10.5555556 10.5555556,10.3444444 10.5555556,10.0277778 L10.5555556,8.97222222 C10.5555556,8.65555556 10.7666667,8.44444444 11.0833333,8.44444444 L14.25,8.44444444 C14.5666667,8.44444444 14.7777778,8.65555556 14.7777778,8.97222222 L14.7777778,10.0277778 C14.7777778,10.3444444 14.5666667,10.5555556 14.25,10.5555556 L14.25,10.5555556 L14.25,10.5555556 Z"/>
  </defs>
  <g fill="none" fill-rule="evenodd">
    <use fill="#006ACF" xlink:href="#a"/>
  </g>
</svg>
