<svg xmlns="http://www.w3.org/2000/svg" width="56" height="50" viewBox="0 0 56 50" xmlns:xlink="http://www.w3.org/1999/xlink">
  <defs>
    <path id="a" d="M52.7777778,49.6732026 L3.10457516,49.6732026 C1.39705882,49.6732026 0,48.2761438 0,46.5686275 L0,20.1797386 C0,19.248366 0.465686275,18.1617647 1.24183007,17.6960784 L25.4575163,0.620915033 C25.9232026,0.310457516 26.5441176,0 27.3202614,0 L28.4068627,0 C29.0277778,0 29.6486928,0.155228758 30.2696078,0.620915033 L54.4852941,17.6960784 C55.2614379,18.3169935 55.7271242,19.248366 55.7271242,20.1797386 L55.7271242,46.5686275 C55.8823529,48.2761438 54.4852941,49.6732026 52.7777778,49.6732026 L52.7777778,49.6732026 L52.7777778,49.6732026 Z M53.3738582,21.3975918 C53.3738582,20.8241884 53.008396,20.250785 52.6429338,19.8685161 L27.7915043,1.51960784 L2.94007472,19.8685161 C2.39188143,20.250785 2.20915033,20.8241884 2.20915033,21.3975918 L2.20915033,45.0982649 C2.20915033,46.2450717 2.94007472,47.0096095 4.03646132,47.0096095 L51.5465472,47.0096095 C52.6429338,47.0096095 53.3738582,46.2450717 53.3738582,45.0982649 L53.3738582,21.3975918 L53.3738582,21.3975918 Z M12.4183007,49.6732026 L12.4183007,26.3888889 C12.4183007,25.4575163 13.0392157,24.8366013 13.9705882,24.8366013 L23.2843137,24.8366013 C24.2156863,24.8366013 24.8366013,25.4575163 24.8366013,26.3888889 L24.8366013,49.6732026 L12.4183007,49.6732026 L12.4183007,49.6732026 Z M41.9117647,31.0457516 L32.5980392,31.0457516 C31.6666667,31.0457516 31.0457516,30.4248366 31.0457516,29.4934641 L31.0457516,26.3888889 C31.0457516,25.4575163 31.6666667,24.8366013 32.5980392,24.8366013 L41.9117647,24.8366013 C42.8431373,24.8366013 43.4640523,25.4575163 43.4640523,26.3888889 L43.4640523,29.4934641 C43.4640523,30.4248366 42.8431373,31.0457516 41.9117647,31.0457516 L41.9117647,31.0457516 L41.9117647,31.0457516 Z"/>
  </defs>
  <g fill="none" fill-rule="evenodd">
    <use fill="#006ACF" xlink:href="#a"/>
  </g>
</svg>
