<svg xmlns="http://www.w3.org/2000/svg" width="28" height="24" viewBox="0 0 28 24">
  <path fill="#FFFFFF" fill-rule="evenodd" d="M24.8452117,5.85232994 C24.8555912,6.1070933 24.8625109,6.36185666 24.8625109,6.62023368 C24.8625109,14.4564655 19.150292,23.4942409 8.7049927,23.4942409 C5.49770803,23.4942409 2.51358394,22.5131309 0,20.83097 C0.444591241,20.885175 0.89610219,20.9122775 1.35453285,20.9122775 C4.01516058,20.9122775 6.4630073,19.9654973 8.40744526,18.373678 C5.92154015,18.3267004 3.82486861,16.6120165 3.10175912,14.2559071 C3.44947445,14.3245668 3.80410949,14.3607034 4.17085401,14.3607034 C4.68810219,14.3607034 5.18978102,14.2884301 5.66724088,14.1529177 C3.06889051,13.6090612 1.11234307,11.2113947 1.11234307,8.33853123 L1.11234307,8.26264428 C1.8769708,8.70712503 2.7540438,8.97453622 3.68474453,9.00525237 C2.16067883,7.94102812 1.15732117,6.12516162 1.15732117,4.06898642 C1.15732117,2.98127336 1.43756934,1.96221992 1.92713869,1.08590623 C4.72789051,4.67427526 8.91258394,7.03580512 13.6318248,7.28334115 C13.5349489,6.84970139 13.484781,6.39618647 13.484781,5.93183056 C13.484781,2.65604354 16.0277737,0 19.1624015,0 C20.7971825,0 22.2728102,0.720926102 23.3073066,1.87368513 C24.601292,1.60808078 25.8174307,1.11481555 26.9142044,0.435446593 C26.4903723,1.81948016 25.5890803,2.98127336 24.4179197,3.71665412 C25.5665912,3.57210753 26.6599051,3.25410504 27.6788321,2.7825218 C26.9176642,3.97141748 25.9540949,5.01576657 24.8452117,5.85232994"/>
</svg>
