<svg xmlns="http://www.w3.org/2000/svg" width="28" height="27" viewBox="0 0 28 27">
  <path fill="#FFFFFF" fill-rule="evenodd" d="M27.6788321,14.3778828 L23.724219,14.3778828 L23.724219,18.4863628 L21.7486423,18.4863628 L21.7486423,14.3778828 L17.7940292,14.3778828 L17.7940292,12.3236428 L21.7486423,12.3236428 L21.7486423,8.21516277 L23.724219,8.21516277 L23.724219,12.3236428 L27.6788321,12.3236428 L27.6788321,14.3778828 Z M13.4207737,1.86373305 C13.6837226,2.13691283 13.9414818,2.47299584 14.1940511,2.87198208 C14.4362409,3.24940151 14.6507518,3.69331864 14.8375839,4.20732795 C14.9915474,4.71954002 15.0676642,5.31801939 15.0676642,6.00276606 C15.0469051,7.25723633 14.7718467,8.26009365 14.2390292,9.01313526 C13.9778102,9.37797404 13.7027518,9.71405705 13.4103942,10.0231815 C13.0868978,10.3305088 12.7443723,10.645025 12.3793577,10.9631356 C12.1700365,11.1806011 11.9780146,11.4250251 11.7998321,11.7000021 C11.5922409,11.9839653 11.4884453,12.3146566 11.4884453,12.692076 C11.4884453,13.0569148 11.5939708,13.3588503 11.8084818,13.5978826 C11.9901241,13.8261315 12.1665766,14.0256246 12.3378394,14.196362 L13.5245693,15.1722608 C14.2615182,15.7761319 14.9085109,16.4429062 15.4655474,17.1725837 C15.9897153,17.9148419 16.2613139,18.8835518 16.2838029,20.0823078 C16.2838029,21.7806952 15.5347445,23.2867784 14.0383577,24.596963 C12.4848832,25.9538756 10.2446277,26.6565947 7.31759124,26.7015255 C4.8680146,26.6781615 3.03775182,26.155166 1.83026277,25.1307419 C0.610664234,24.1746126 0,23.0297737 0,21.6980223 C0,21.0492204 0.198941606,20.3267318 0.595094891,19.5305565 C0.980868613,18.732584 1.67629927,18.0334595 2.68657664,17.4295884 C3.81967883,16.7807864 5.00986861,16.3494499 6.25714599,16.1319845 C7.49058394,15.9504637 8.51643066,15.8480213 9.3329562,15.8246572 C9.08038686,15.4921687 8.85549635,15.1381133 8.65828467,14.7588967 C8.42820438,14.3922607 8.3140292,13.9501408 8.3140292,13.4343342 C8.3140292,13.1252097 8.35727737,12.8664078 8.44550365,12.6597258 C8.52162044,12.4422603 8.59254745,12.2427672 8.65828467,12.0594492 C8.26213139,12.1043801 7.88673723,12.1277441 7.53556204,12.1277441 C5.67243066,12.1043801 4.25389051,11.5166841 3.27648175,10.3646562 C2.25409489,9.29350398 1.74376642,8.04442541 1.74376642,6.61921778 C1.74376642,4.89746632 2.46860584,3.3356688 3.91655474,1.932028 C4.90953285,1.11248868 5.9440292,0.575115311 7.01658394,0.325299598 C8.0770292,0.107834121 9.07173723,0 10.000708,0 L16.9965328,0 L14.835854,1.26345645 L12.678635,1.26345645 C12.8983358,1.40184357 13.1457153,1.60133669 13.4207737,1.86373305 Z M9.73724015,1.79579756 C9.18539343,1.39681131 8.55224015,1.18473754 7.83605036,1.16137348 C6.88805036,1.18473754 6.09920365,1.56754867 5.47124015,2.30980687 C4.94015255,3.08800977 4.68758321,3.95607445 4.71007226,4.91579812 C4.71007226,6.18464628 5.08027664,7.50381702 5.8206854,8.87510759 C6.17878029,9.51492337 6.64240073,10.0576884 7.20808686,10.5034028 C7.77550292,10.9491172 8.42422555,11.1719744 9.15252482,11.1719744 C10.072846,11.1378269 10.8409336,10.8071356 11.4550577,10.1781032 C11.7508752,9.73238885 11.9411672,9.27589107 12.0259336,8.80681265 C12.0761015,8.33773422 12.1020504,7.94413968 12.1020504,7.62423179 C12.1020504,6.24036057 11.7491453,4.84750318 11.043335,3.44206514 C10.712919,2.76630465 10.2769774,2.21814787 9.73724015,1.79579756 Z M9.50231606,16.7816851 C9.32413358,16.758321 8.86743285,16.7816851 8.13221387,16.84998 C7.40737445,16.9524224 6.66696569,17.1177681 5.90925766,17.3460169 C5.73107518,17.4143119 5.48023577,17.5167543 5.15846934,17.6551414 C4.83497299,17.8025147 4.50628686,18.0127913 4.17241095,18.2877683 C3.8489146,18.5717315 3.57731606,18.9257868 3.35415547,19.3481371 C3.09812628,19.7920543 2.96838175,20.3294276 2.96838175,20.9566628 C2.96838175,22.187769 3.52541825,23.2032069 4.63949124,24.0011794 C5.69820657,24.8009492 7.14615547,25.2107188 8.98506788,25.2340829 C10.6336883,25.2107188 11.8913453,24.8458801 12.7597686,24.1395666 C13.6074328,23.4422392 14.029535,22.547216 14.029535,21.4526997 C14.029535,20.5630682 13.7406372,19.7866626 13.1611117,19.1252799 C12.5487175,18.4980448 11.590338,17.7288281 10.2877029,16.8158325 C10.0645423,16.7924685 9.80332336,16.7816851 9.50231606,16.7816851 Z"/>
</svg>
