<svg xmlns="http://www.w3.org/2000/svg" width="60" height="60" viewBox="0 0 60 60">
  <g fill="none" fill-rule="evenodd">
    <circle cx="30" cy="30" r="28" stroke="#FF9916" stroke-width="4"/>
    <g fill="#FF9916" fill-rule="nonzero" transform="translate(20 13)">
      <path d="M8.33437006 26.6666667C6.49314465 26.6666667 5 28.1594225 5 30.0005184 5 31.8396703 6.49314465 33.3333333 8.33437006 33.3333333 10.1740404 33.3333333 11.6666667 31.8396703 11.6666667 30.0005184 11.6666667 28.1594225 10.1740404 26.6666667 8.33437006 26.6666667zM.471838421 5.66347416L2.80151098 7.52882381C3.27582513 7.90782055 3.95524091 7.89400019 4.41332782 7.49533602 4.41332782 7.49533602 4.69956564 6.97853437 5.59658601 6.46664957 6.49812872 5.95768831 7.66755385 5.54826021 9.41504103 5.54228025 10.9396032 5.53935671 12.2693056 6.10732027 13.1763017 6.88405096 13.626541 7.26995788 13.9634557 7.69905342 14.1698874 8.09466116 14.3777823 8.4914649 14.453598 8.83883428 14.452667 9.10261707 14.4486767 9.99442883 14.2748324 10.5782061 14.0241083 11.0742772 13.8335048 11.4463637 13.5847758 11.7751288 13.2639554 12.0940601 12.7856509 12.5724571 12.1357634 13.0144428 11.4077989 13.4209474 10.6786373 13.8305084 9.89294646 14.1927612 9.09887594 14.6296971 8.19334292 15.1317482 7.23380779 15.8514699 6.52579483 16.9321156 6.17212087 17.4656612 5.89572581 18.0778765 5.7198864 18.7215862 5.54245088 19.3683524 5.46224577 20.0446197 5.46224577 20.7345745 5.46224577 21.4709072 5.46224577 22.0762123 5.46224577 22.0762123 5.46224577 22.7692235 6.02580972 23.3333333 6.7209207 23.3333333L9.75195571 23.3333333C10.4465346 23.3333333 11.0096996 22.7692235 11.0096996 22.0762123 11.0096996 22.0762123 11.0096996 21.4709072 11.0096996 20.7345745 11.0096996 20.4687984 11.0402919 20.2965755 11.0698202 20.1892019 11.1195659 20.0258825 11.1476311 19.9853516 11.2304964 19.8859514 11.3137607 19.7914679 11.4826836 19.647816 11.7940604 19.475593 12.248822 19.2205809 12.9798457 18.8760021 13.8079668 18.4281694 15.0478873 17.7509718 16.5543602 16.8325825 17.825405 15.3156653 18.4569372 14.5578047 19.0155797 13.6471229 19.4029053 12.5978388 19.7910288 11.5474915 20.0018499 10.3663825 19.9999878 9.1023513 19.9989237 7.82170909 19.6512352 6.60405582 19.084612 5.52420747 18.231352 3.90204296 16.8943341 2.55150164 15.2380918 1.57105355 13.5823816.595522323 11.5843034.0000509387109 9.41530705.0000509387109 6.74220232-.00685924026 4.52093302.690005731 2.8451383 1.65370992 1.161762 2.61342747.436191704 3.73061737.436191704 3.73061737.153412152 3.97672605-.00620001297 4.33313182.000184473622 4.70614859.00829809201 5.08076003.18014719 5.43118583.471838421 5.66347416z"/>
    </g>
  </g>
</svg>
