<svg xmlns="http://www.w3.org/2000/svg" width="40" height="40" viewBox="0 0 40 40">
  <g fill="none" fill-rule="evenodd">
    <rect width="40" height="40" fill="#FF9916" rx="5"/>
    <g fill="#FFFFFF" fill-rule="nonzero" transform="translate(6 7)">
      <path d="M25.4367923,20.9067244 L19.068996,15.6 C18.1677156,16.9860953 16.984641,18.1689791 15.6,19.0701141 L20.9059551,25.4368832 C21.4958669,26.1446631 22.5134516,26.192163 23.1657105,25.5401142 L25.54004,23.1661678 C26.192194,22.5139616 26.1446865,21.4965411 25.4367923,20.9067244 Z"/>
      <path d="M19.76,9.88 C19.76,4.42382146 15.3361785,0 9.88,0 C4.42382146,0 0,4.42382146 0,9.88 C0,15.33623 4.42382146,19.76 9.88,19.76 C15.3361785,19.7600515 19.76,15.33623 19.76,9.88 Z M9.87994854,17.2900515 C5.79384813,17.2900515 2.46994854,13.9661519 2.46994854,9.88005146 C2.46994854,5.79395104 5.79384813,2.47005146 9.87994854,2.47005146 C13.9661004,2.47005146 17.2899485,5.79395104 17.2899485,9.88005146 C17.29,13.9661519 13.9661004,17.2900515 9.87994854,17.2900515 Z"/>
    </g>
  </g>
</svg>
