<svg xmlns="http://www.w3.org/2000/svg" width="17" height="17" viewBox="0 0 17 17">
  <g fill="none" fill-rule="evenodd">
    <path fill="#636970" d="M10.4125,8.5 L12.325,10.4125 C12.8208333,10.9083333 12.8208333,11.7583333 12.325,12.325 L12.325,12.325 C11.8291667,12.8208333 10.9791667,12.8208333 10.4125,12.325 L8.5,10.4125 L6.5875,12.325 C6.09166667,12.8208333 5.24166667,12.8208333 4.675,12.325 L4.675,12.325 C4.17916667,11.8291667 4.17916667,10.9791667 4.675,10.4125 L6.5875,8.5 L4.675,6.5875 C4.17916667,6.09166667 4.17916667,5.24166667 4.675,4.675 L4.675,4.675 C5.17083333,4.17916667 6.02083333,4.17916667 6.5875,4.675 L8.5,6.5875 L10.4125,4.675 C10.9083333,4.17916667 11.7583333,4.17916667 12.325,4.675 L12.325,4.675 C12.8208333,5.17083333 12.8208333,6.02083333 12.325,6.5875 L10.4125,8.5 L10.4125,8.5 Z"/>
    <circle cx="8.5" cy="8.5" r="7.5" stroke="#636970" stroke-width="2"/>
  </g>
</svg>
